<?xml version="1.0" standalone="no"?>
<!DOCTYPE svg PUBLIC "-//W3C//DTD SVG 20010904//EN"
 "http://www.w3.org/TR/2001/REC-SVG-20010904/DTD/svg10.dtd">
<svg version="1.0" xmlns="http://www.w3.org/2000/svg"
 width="512.000000pt" height="512.000000pt" viewBox="0 0 512.000000 512.000000"
 preserveAspectRatio="xMidYMid meet">

<g transform="translate(0.000000,512.000000) scale(0.100000,-0.100000)"
fill="#000000" stroke="none">
<path d="M2406 5110 c-211 -34 -434 -141 -573 -275 -61 -59 -69 -96 -30 -133
39 -37 69 -28 152 41 98 82 167 123 275 163 160 61 326 77 482 49 175 -31 333
-106 463 -220 72 -63 107 -70 143 -32 37 39 29 74 -31 132 -113 109 -294 207
-464 251 -110 28 -314 40 -417 24z"/>
<path d="M2444 4750 c-121 -22 -253 -86 -340 -166 -40 -38 -45 -46 -42 -80 2
-26 11 -43 30 -57 35 -26 64 -18 125 35 65 56 175 105 267 120 144 22 309 -25
419 -120 26 -23 59 -45 73 -48 50 -13 94 43 80 100 -13 51 -168 153 -291 192
-90 28 -236 39 -321 24z"/>
<path d="M2494 4419 c-58 -14 -146 -69 -162 -102 -11 -23 -11 -34 -2 -58 24
-57 69 -63 134 -18 35 25 54 31 96 31 42 0 61 -6 96 -31 63 -44 103 -39 133
16 46 87 -151 195 -295 162z"/>
<path d="M1331 3765 c-139 -31 -259 -111 -341 -227 -59 -84 -63 -95 -165 -478
l-81 -305 -214 -6 c-238 -6 -258 -10 -328 -73 -58 -53 -86 -124 -80 -206 6
-73 23 -113 69 -159 56 -57 103 -74 216 -80 l102 -6 -52 -44 c-121 -101 -221
-255 -268 -411 -20 -68 -23 -104 -28 -377 l-6 -302 -45 -24 c-30 -16 -55 -40
-75 -72 -29 -47 -30 -51 -33 -203 -4 -180 6 -220 68 -276 52 -47 92 -56 243
-56 l127 0 0 -154 c0 -165 6 -195 48 -240 59 -63 74 -66 425 -66 346 0 362 2
420 58 54 51 60 74 65 245 l4 157 1159 0 1159 0 0 -127 c1 -71 5 -147 9 -170
12 -62 49 -110 105 -138 l50 -25 320 0 c354 0 369 3 428 66 42 45 48 75 48
240 l0 154 128 0 c150 0 190 9 242 56 62 56 72 96 68 276 -3 152 -4 156 -33
203 -20 32 -45 56 -75 72 l-45 24 -6 302 c-5 273 -8 309 -28 377 -47 156 -147
310 -268 411 l-52 44 102 5 c78 5 113 11 149 29 155 75 190 288 67 410 -66 67
-99 75 -339 81 l-214 5 -81 305 c-102 383 -106 394 -165 478 -56 80 -130 143
-216 184 -123 58 -122 58 -1036 58 -460 0 -844 -3 -853 -6 -24 -10 -46 -60
-39 -89 14 -57 -25 -55 889 -55 530 0 856 -4 884 -11 96 -22 192 -86 250 -168
l22 -31 -1471 0 -1471 0 30 43 c53 73 148 135 241 156 25 6 108 11 185 11 153
0 177 7 189 55 7 29 -15 79 -39 89 -31 11 -299 5 -364 -9z m2752 -502 c11 -17
239 -894 235 -899 -3 -3 -34 0 -69 6 -88 14 -3290 14 -3378 0 -35 -6 -66 -9
-69 -6 -4 5 224 882 235 899 2 4 688 7 1523 7 835 0 1521 -3 1523 -7z m-3385
-680 c-3 -10 -15 -60 -29 -111 l-24 -93 -158 3 -159 3 -29 33 c-53 60 -30 149
44 171 18 5 106 10 196 10 151 1 163 0 159 -16z m4106 -6 c64 -42 66 -139 3
-177 -28 -17 -51 -20 -182 -20 l-150 0 -24 93 c-14 50 -27 100 -29 110 -5 18
5 18 175 15 153 -3 183 -6 207 -21z m-552 -361 c264 -51 472 -248 538 -510 18
-69 20 -113 20 -348 l0 -268 -260 0 c-247 0 -261 -1 -280 -20 -30 -30 -27 -83
6 -109 26 -20 38 -21 342 -21 279 0 318 -2 334 -17 16 -14 18 -33 18 -145 0
-115 -2 -130 -20 -148 -20 -20 -33 -20 -2390 -20 -2357 0 -2370 0 -2390 20
-18 18 -20 33 -20 148 0 112 2 131 18 145 17 16 169 17 1906 19 1875 3 1888 3
1902 23 26 35 28 65 7 93 l-20 27 -1827 3 -1826 2 0 266 c0 205 4 281 16 337
56 257 274 470 534 522 100 20 3288 21 3392 1z m-3004 -1894 c-2 -99 -7 -144
-17 -155 -12 -15 -47 -17 -315 -17 -222 0 -305 3 -314 12 -8 8 -12 57 -12 155
l0 143 331 0 331 0 -4 -138z m3282 -5 c0 -98 -4 -147 -12 -155 -9 -9 -93 -12
-314 -12 -367 0 -334 -18 -334 177 l0 133 330 0 330 0 0 -143z"/>
<path d="M917 1959 c-98 -23 -199 -109 -245 -207 -23 -49 -27 -70 -27 -152 0
-82 4 -103 27 -152 34 -74 112 -152 186 -186 49 -23 70 -27 152 -27 84 0 102
3 152 28 258 127 288 471 56 642 -74 54 -202 77 -301 54z m178 -158 c135 -61
174 -236 76 -344 -109 -121 -292 -95 -358 50 -83 182 103 376 282 294z"/>
<path d="M3997 1951 c-127 -42 -218 -147 -247 -284 -33 -159 54 -329 208 -404
50 -25 68 -28 152 -28 88 0 101 3 162 33 78 38 138 101 177 182 22 47 26 68
26 150 -1 84 -4 102 -30 155 -36 76 -110 149 -181 182 -76 34 -187 41 -267 14z
m214 -159 c69 -36 110 -99 117 -177 8 -97 -55 -193 -147 -224 -161 -53 -320
95 -281 260 8 34 25 66 49 92 72 80 168 98 262 49z"/>
<path d="M1715 1798 c-43 -23 -45 -34 -45 -234 0 -178 1 -193 21 -218 l20 -26
849 0 849 0 20 26 c20 25 21 39 21 218 -1 200 -3 211 -47 234 -30 16 -1659 16
-1688 0z m1585 -233 l0 -95 -740 0 -740 0 0 95 0 95 740 0 740 0 0 -95z"/>
</g>
</svg>
