<?xml version="1.0" standalone="no"?>
<!DOCTYPE svg PUBLIC "-//W3C//DTD SVG 20010904//EN"
 "http://www.w3.org/TR/2001/REC-SVG-20010904/DTD/svg10.dtd">
<svg version="1.0" xmlns="http://www.w3.org/2000/svg"
 width="512.000000pt" height="512.000000pt" viewBox="0 0 512.000000 512.000000"
 preserveAspectRatio="xMidYMid meet">

<g transform="translate(0.000000,512.000000) scale(0.100000,-0.100000)"
fill="#000000" stroke="none">
<path d="M1188 5105 c-401 -68 -743 -384 -844 -783 -62 -243 -31 -487 92 -733
80 -161 180 -290 404 -522 73 -76 131 -139 129 -140 -2 -2 -35 -23 -73 -47
-259 -166 -353 -442 -234 -688 142 -295 557 -450 938 -350 114 30 243 99 334
178 l33 29 674 -224 674 -225 0 -82 c0 -46 2 -101 5 -122 l5 -39 -395 -173
c-217 -96 -401 -174 -408 -174 -7 0 -33 15 -57 34 -65 49 -178 102 -275 128
-112 30 -338 32 -443 4 -315 -83 -515 -288 -534 -546 -16 -215 123 -427 352
-539 243 -118 536 -120 780 -5 182 85 306 228 351 405 16 60 16 91 1 238 -2
22 24 35 393 197 217 95 400 173 406 174 6 0 42 -21 80 -46 106 -72 199 -108
334 -130 356 -59 709 93 844 362 189 376 -129 787 -634 820 -224 15 -438 -50
-601 -181 l-67 -54 -673 224 -674 225 -1 98 c-1 73 -7 112 -23 157 -44 121
-144 240 -263 310 -35 21 -65 40 -67 42 -3 2 40 50 95 106 367 374 496 585
550 897 51 296 -56 622 -282 859 -245 257 -585 373 -926 316z m291 -296 c266
-43 501 -249 591 -518 62 -186 45 -370 -53 -566 -70 -140 -139 -227 -372 -465
-94 -96 -196 -203 -228 -238 l-57 -63 -57 63 c-32 35 -141 149 -243 253 -213
219 -292 320 -360 460 -81 167 -106 317 -76 461 53 264 232 479 478 574 123
48 247 61 377 39z m-199 -2250 c40 -60 77 -108 81 -107 5 2 44 55 86 118 62
91 82 114 98 112 49 -9 135 -60 185 -111 107 -108 107 -214 0 -322 -185 -186
-555 -186 -740 0 -98 98 -106 204 -22 301 60 71 201 151 228 129 6 -5 44 -59
84 -120z m2912 -763 c98 -21 175 -62 238 -125 107 -108 107 -214 0 -322 -116
-117 -311 -165 -502 -125 -177 38 -318 164 -318 286 0 120 140 247 314 285 81
18 186 18 268 1z m-2100 -910 c98 -21 175 -62 238 -125 107 -108 107 -214 0
-322 -116 -117 -311 -165 -502 -125 -177 38 -318 164 -318 286 0 120 140 247
314 285 81 18 186 18 268 1z"/>
<path d="M1255 4496 c-84 -21 -147 -57 -211 -121 -177 -176 -177 -453 1 -630
258 -259 695 -118 757 244 24 141 -22 281 -127 387 -112 113 -269 158 -420
120z m175 -306 c45 -23 80 -80 80 -130 0 -76 -74 -150 -151 -150 -46 0 -108
39 -130 82 -37 72 -14 151 57 194 48 29 92 30 144 4z"/>
</g>
</svg>
