<?xml version="1.0" standalone="no"?>
<!DOCTYPE svg PUBLIC "-//W3C//DTD SVG 20010904//EN"
 "http://www.w3.org/TR/2001/REC-SVG-20010904/DTD/svg10.dtd">
<svg version="1.0" xmlns="http://www.w3.org/2000/svg"
 width="512.000000pt" height="512.000000pt" viewBox="0 0 512.000000 512.000000"
 preserveAspectRatio="xMidYMid meet">

<g transform="translate(0.000000,512.000000) scale(0.100000,-0.100000)"
fill="#000000" stroke="none">
<path d="M1124 5091 c-21 -16 -281 -271 -576 -567 -359 -360 -539 -548 -543
-566 -4 -16 -4 -40 0 -55 7 -31 1089 -1123 1137 -1149 15 -8 42 -14 60 -14 29
0 58 26 283 250 l250 250 113 -113 112 -112 -61 -60 c-88 -86 -119 -131 -119
-174 0 -34 25 -61 483 -518 457 -458 484 -483 518 -483 43 0 88 31 174 119
l60 61 112 -112 113 -113 -250 -250 c-224 -225 -250 -254 -250 -283 0 -18 6
-45 14 -60 26 -48 1118 -1130 1148 -1137 16 -4 40 -4 55 0 39 9 1149 1119
1158 1158 4 15 4 39 0 55 -7 30 -1089 1122 -1137 1148 -15 8 -42 14 -60 14
-29 0 -58 -26 -283 -250 l-250 -250 -113 113 -112 112 61 60 c88 86 119 131
119 173 0 33 -16 52 -207 244 l-208 208 105 105 c58 58 108 105 112 105 4 0
39 -24 78 -54 145 -109 343 -195 537 -232 130 -26 357 -23 490 5 193 40 372
121 523 235 122 92 170 146 170 193 0 35 -13 50 -231 269 l-231 231 72 269
c110 415 93 371 144 376 58 7 145 48 193 92 22 19 55 64 74 98 32 60 34 68 34
163 0 87 -3 107 -27 157 -34 73 -98 137 -174 174 -51 25 -70 28 -149 29 -77 0
-98 -4 -147 -27 -111 -52 -185 -145 -208 -264 l-12 -60 -307 -82 c-168 -45
-313 -82 -321 -82 -8 0 -117 102 -242 227 -221 221 -229 228 -268 228 -35 0
-47 -7 -95 -55 -118 -117 -229 -301 -289 -480 -136 -408 -61 -870 196 -1199
l50 -63 -103 -104 c-57 -57 -108 -104 -114 -104 -5 0 -100 90 -210 200 -186
185 -204 200 -237 200 -42 0 -87 -31 -173 -119 l-60 -61 -112 112 -113 113
250 250 c224 225 250 254 250 283 0 18 -6 45 -14 60 -18 33 -1102 1115 -1133
1131 -36 18 -68 13 -109 -18z m271 -421 l200 -200 -200 -200 -200 -200 -202
202 -203 203 197 197 c109 109 200 198 203 198 3 0 95 -90 205 -200z m3333
113 c46 -34 72 -81 72 -130 0 -93 -55 -153 -145 -161 -62 -5 -102 13 -139 61
-82 108 3 265 137 254 27 -2 60 -13 75 -24z m-68 -1663 c-19 -16 -69 -49 -110
-73 -428 -255 -981 -185 -1335 168 -142 142 -241 312 -292 503 -24 87 -27 115
-27 277 0 164 2 189 27 278 32 119 107 279 172 366 l47 64 777 -777 776 -777
-35 -29z m-512 1173 l-158 -158 -90 90 c-49 49 -87 91 -84 94 7 7 453 129 474
130 8 1 -56 -70 -142 -156z m-3298 -568 l-200 -200 -202 202 -203 203 200 200
200 200 202 -202 203 -203 -200 -200z m1090 0 l-200 -200 -202 202 -203 203
200 200 200 200 202 -202 203 -203 -200 -200z m2505 573 c-2 -7 -32 -116 -65
-243 -34 -126 -64 -232 -66 -234 -3 -3 -45 35 -94 84 l-90 90 157 157 c87 87
159 158 160 158 1 0 1 -6 -2 -12z m-3050 -718 l200 -200 -200 -200 -200 -200
-202 202 -203 203 197 197 c109 109 200 198 203 198 3 0 95 -90 205 -200z
m1548 -1402 l-158 -158 -382 382 -383 383 157 157 158 158 382 -382 383 -383
-157 -157z m1187 -643 l-200 -200 -202 202 -203 203 200 200 200 200 202 -202
203 -203 -200 -200z m-545 -145 l200 -200 -200 -200 -200 -200 -202 202 -203
203 197 197 c109 109 200 198 203 198 3 0 95 -90 205 -200z m1090 0 l200 -200
-200 -200 -200 -200 -202 202 -203 203 197 197 c109 109 200 198 203 198 3 0
95 -90 205 -200z m-545 -945 l-200 -200 -202 202 -203 203 200 200 200 200
202 -202 203 -203 -200 -200z"/>
</g>
</svg>
