<?xml version="1.0" standalone="no"?>
<!DOCTYPE svg PUBLIC "-//W3C//DTD SVG 20010904//EN"
 "http://www.w3.org/TR/2001/REC-SVG-20010904/DTD/svg10.dtd">
<svg version="1.0" xmlns="http://www.w3.org/2000/svg"
 width="512.000000pt" height="512.000000pt" viewBox="0 0 512.000000 512.000000"
 preserveAspectRatio="xMidYMid meet">

<g transform="translate(0.000000,512.000000) scale(0.100000,-0.100000)"
fill="#212738" stroke="none">
<path d="M3445 4704 c-40 -20 -73 -52 -93 -89 -15 -26 -17 -70 -17 -336 0
-288 1 -308 19 -328 26 -29 76 -28 104 2 22 23 22 30 22 308 0 156 4 290 8
297 7 10 162 12 743 10 l734 -3 3 -729 c1 -530 -1 -733 -9 -742 -16 -19 -1448
-21 -1467 -2 -9 9 -12 74 -12 231 0 135 -4 226 -11 238 -15 30 -57 42 -91 28
-44 -18 -50 -58 -46 -299 3 -208 4 -217 28 -260 15 -27 41 -53 65 -67 39 -22
47 -23 343 -23 l302 0 0 -440 c0 -356 -2 -440 -13 -440 -43 0 -195 49 -271 87
-49 24 -224 136 -390 247 -372 252 -456 295 -656 342 -64 14 -147 18 -575 21
-333 3 -541 1 -623 -7 -266 -24 -463 -113 -677 -306 -172 -154 -300 -222 -518
-273 -70 -17 -145 -40 -168 -51 -55 -29 -113 -91 -146 -158 l-28 -57 0 -425
c0 -385 2 -428 17 -457 33 -59 75 -88 233 -158 l157 -71 22 -60 c33 -89 67
-142 130 -202 234 -221 621 -148 761 143 l36 75 1209 0 1208 0 36 -76 c57
-121 172 -218 301 -255 71 -20 216 -16 285 8 123 42 228 137 283 254 l31 67
100 4 c59 3 116 12 138 21 62 26 125 92 148 155 20 53 21 72 18 312 -4 292 -8
308 -99 445 -111 165 -222 227 -511 285 l-58 11 0 479 0 479 278 3 279 3 37
29 c21 16 47 48 57 72 19 41 19 74 17 797 l-3 753 -27 41 c-16 24 -44 49 -70
62 -44 21 -50 21 -794 21 -659 0 -753 -2 -779 -16z m855 -2230 c0 -438 -1
-465 -17 -461 -10 3 -30 8 -45 11 l-28 6 0 449 c0 246 3 451 7 454 3 4 24 7
45 7 l38 0 0 -466z m-1595 117 c115 -24 232 -69 318 -123 37 -24 187 -124 334
-223 266 -179 412 -262 509 -291 28 -8 216 -48 418 -88 320 -64 377 -78 441
-110 86 -42 165 -122 211 -213 l29 -58 3 -245 c3 -211 1 -249 -13 -276 -26
-48 -62 -64 -148 -64 l-76 0 -7 48 c-38 264 -280 448 -542 412 -201 -27 -365
-179 -407 -377 -8 -38 -15 -71 -15 -76 0 -4 -537 -6 -1192 -5 l-1193 3 -7 50
c-41 317 -391 500 -686 360 -127 -60 -234 -193 -257 -318 -7 -35 -10 -38 -33
-32 -13 3 -72 29 -131 58 l-106 52 -3 398 c-2 381 -1 399 18 437 32 63 71 85
210 118 248 60 400 138 560 287 97 91 163 139 255 187 203 103 227 106 880
107 490 1 548 -1 630 -18z m-1663 -1409 c76 -37 120 -83 155 -160 81 -176 -5
-384 -186 -453 -45 -17 -72 -20 -136 -17 -143 8 -254 89 -301 220 -25 70 -20
177 11 246 82 179 281 251 457 164z m3353 3 c206 -105 249 -373 86 -536 -164
-164 -436 -119 -538 90 -24 49 -28 68 -28 146 0 75 4 98 24 139 32 65 73 111
130 144 70 41 109 51 192 48 61 -2 89 -8 134 -31z"/>
<path d="M1452 2485 c-157 -34 -353 -140 -437 -235 -36 -41 -162 -137 -250
-190 -111 -67 -140 -107 -140 -195 0 -52 5 -68 29 -103 50 -73 83 -82 299 -82
174 0 188 1 207 20 11 11 20 33 20 50 0 17 -9 39 -20 50 -18 18 -33 20 -186
20 -95 0 -174 4 -185 10 -34 19 -24 57 24 86 122 77 184 123 278 206 209 185
310 226 577 235 l162 6 0 -272 0 -271 -135 0 c-122 0 -137 -2 -155 -20 -11
-11 -20 -33 -20 -50 0 -17 9 -39 20 -50 20 -20 33 -20 1055 -20 l1035 0 32 29
c30 26 33 35 32 83 0 49 -15 89 -46 129 -15 18 -651 444 -713 477 -71 38 -138
63 -223 83 -77 18 -122 19 -640 18 -432 0 -571 -4 -620 -14z m1245 -148 c110
-29 181 -69 498 -280 171 -114 319 -213 330 -221 18 -13 -74 -15 -762 -16
l-783 0 0 271 0 271 328 -5 c258 -3 340 -8 389 -20z"/>
<path d="M1909 1559 c-53 -20 -59 -102 -10 -128 11 -6 77 -11 149 -11 116 0
132 2 156 21 31 25 34 66 7 100 -18 23 -26 24 -148 26 -70 1 -140 -2 -154 -8z"/>
<path d="M792 1079 c-47 -23 -83 -64 -107 -122 -64 -154 93 -330 256 -287 169
44 227 255 103 372 -65 60 -173 76 -252 37z m132 -130 c51 -23 55 -103 7 -128
-79 -42 -154 64 -85 118 30 24 43 26 78 10z"/>
<path d="M4150 1081 c-125 -67 -161 -217 -79 -332 73 -102 250 -112 335 -17
101 110 66 287 -69 351 -48 23 -142 22 -187 -2z m145 -146 c15 -14 25 -36 25
-51 0 -37 -36 -74 -72 -74 -36 0 -78 40 -78 75 0 33 42 75 75 75 14 0 37 -11
50 -25z"/>
<path d="M1829 4335 c-161 -30 -338 -101 -464 -184 -91 -60 -205 -160 -216
-189 -21 -55 34 -111 90 -90 13 4 48 30 77 57 249 228 610 324 954 254 195
-39 349 -118 523 -267 65 -56 108 -64 139 -25 33 40 23 71 -39 130 -150 143
-332 240 -548 296 -126 32 -393 41 -516 18z"/>
<path d="M3988 4289 c-17 -9 -18 -41 -18 -433 0 -481 -4 -456 82 -456 73 0 78
11 78 183 l0 147 48 0 c90 0 211 19 250 39 93 47 137 141 130 275 -7 128 -64
212 -162 241 -59 18 -380 21 -408 4z m351 -144 c42 -21 64 -76 59 -146 -8
-105 -52 -137 -190 -138 l-78 -1 0 150 0 150 90 0 c60 0 101 -5 119 -15z"/>
<path d="M1901 3915 c-129 -24 -245 -76 -359 -162 -86 -66 -109 -102 -92 -143
23 -55 97 -57 141 -4 30 37 165 115 243 140 106 34 250 42 356 20 94 -20 218
-80 289 -141 30 -26 65 -51 78 -56 45 -17 93 20 93 70 0 52 -164 178 -302 231
-144 56 -300 71 -447 45z"/>
<path d="M1962 3499 c-101 -20 -222 -106 -222 -158 0 -34 37 -71 71 -71 14 0
41 12 60 26 113 86 239 86 353 -1 40 -30 79 -32 106 -5 63 63 -29 164 -187
205 -62 16 -114 18 -181 4z"/>
</g>
</svg>
